<svg xmlns="http://www.w3.org/2000/svg" xmlns:xlink="http://www.w3.org/1999/xlink">
<symbol id="social-icon-header-facebook" viewBox="0 0 24 24">
    <g clip-path="url(#clip0_12_4228)">
        <path d="M24 12.0733C24 5.40541 18.6274 0 12 0C5.37258 0 0 5.40541 0 12.0733C0 18.0995 4.38823 23.0943 10.125 24V15.5633H7.07813V12.0733H10.125V9.41343C10.125 6.38755 11.9165 4.71615 14.6576 4.71615C15.9705 4.71615 17.3438 4.95195 17.3438 4.95195V7.92313H15.8306C14.3399 7.92313 13.875 8.85379 13.875 9.80857V12.0733H17.2031L16.6711 15.5633H13.875V24C19.6118 23.0943 24 18.0995 24 12.0733Z" fill="#FFFFFF"/>
    </g>
    <defs>
        <clipPath id="clip0_12_4228">
            <rect width="24" height="24" fill="white"/>
        </clipPath>
    </defs>
</symbol>
    <symbol id="social-icon-header-facebook-blue" viewBox="0 0 24 24">
        <g clip-path="url(#clip0_12_4228)">
            <path d="M24 12.0733C24 5.40541 18.6274 0 12 0C5.37258 0 0 5.40541 0 12.0733C0 18.0995 4.38823 23.0943 10.125 24V15.5633H7.07813V12.0733H10.125V9.41343C10.125 6.38755 11.9165 4.71615 14.6576 4.71615C15.9705 4.71615 17.3438 4.95195 17.3438 4.95195V7.92313H15.8306C14.3399 7.92313 13.875 8.85379 13.875 9.80857V12.0733H17.2031L16.6711 15.5633H13.875V24C19.6118 23.0943 24 18.0995 24 12.0733Z" fill="#24A3FF"/>
        </g>
        <defs>
            <clipPath id="clip0_12_4228">
                <rect width="24" height="24" fill="blue"/>
            </clipPath>
        </defs>
    </symbol>
    <symbol id="social-icon-header-facebook-grey" viewBox="0 0 24 24">
        <g clip-path="url(#clip0_12_4228)">
            <path d="M24 12.0733C24 5.40541 18.6274 0 12 0C5.37258 0 0 5.40541 0 12.0733C0 18.0995 4.38823 23.0943 10.125 24V15.5633H7.07813V12.0733H10.125V9.41343C10.125 6.38755 11.9165 4.71615 14.6576 4.71615C15.9705 4.71615 17.3438 4.95195 17.3438 4.95195V7.92313H15.8306C14.3399 7.92313 13.875 8.85379 13.875 9.80857V12.0733H17.2031L16.6711 15.5633H13.875V24C19.6118 23.0943 24 18.0995 24 12.0733Z" fill="#B3B3BA"/>
        </g>
        <defs>
            <clipPath id="clip0_12_4228">
                <rect width="24" height="24" fill="#B3B3BA"/>
            </clipPath>
        </defs>
    </symbol>
    <symbol id="logo-header-other-pages" viewBox="0 0 208 31">
        <g clip-path="url(#clip0_106_2129)">
            <path d="M5.17563 28.5456C5.17563 27.9899 4.98495 27.5213 4.60903 27.1345C4.23312 26.7477 3.77549 26.557 3.24158 26.557C2.7567 26.557 2.3372 26.7096 1.98308 27.0201C1.63441 27.3252 1.41649 27.6957 1.33477 28.137H0.817205V26.6387H0V30.4524H0.817205V28.8997H1.33477C1.41649 29.3628 1.63441 29.755 1.98308 30.0656C2.33176 30.3761 2.75126 30.5341 3.24158 30.5341C3.77549 30.5341 4.23312 30.3434 4.60903 29.9566C4.98495 29.5752 5.17563 29.1013 5.17563 28.5456ZM4.35842 28.5456C4.35842 28.9051 4.24946 29.2048 4.03154 29.439C3.80817 29.6787 3.54667 29.7986 3.24158 29.7986C2.93649 29.7986 2.67498 29.6787 2.45706 29.439C2.23369 29.2048 2.12473 28.9051 2.12473 28.5456C2.12473 28.186 2.23369 27.8863 2.45706 27.6466C2.67498 27.4124 2.93649 27.2925 3.24158 27.2925C3.54667 27.2925 3.80817 27.4124 4.03154 27.6466C4.24946 27.8863 4.35842 28.186 4.35842 28.5456Z" fill="#46466E"/>
            <path d="M6.48047 26.639V30.4526H7.29767V29.1995H8.08764C8.4799 29.1995 8.80678 29.0742 9.06283 28.8291C9.31889 28.5839 9.44964 28.2788 9.44964 27.9192C9.44964 27.5542 9.31889 27.2546 9.06283 27.004C8.80133 26.7588 8.4799 26.639 8.08764 26.639H6.48047ZM8.0604 27.3744C8.22384 27.3744 8.36004 27.4289 8.469 27.5324C8.57796 27.636 8.63244 27.7667 8.63244 27.9192C8.63244 28.0718 8.57796 28.2025 8.469 28.3061C8.36004 28.4096 8.22384 28.4641 8.0604 28.4641H7.29767V27.3744H8.0604Z" fill="#46466E"/>
            <path d="M14.1306 30.4526V26.639H13.4224L11.5428 29.0633V26.639H10.7256V30.4526H11.4338L13.3134 28.0282V30.4526H14.1306Z" fill="#46466E"/>
            <path d="M15.1621 29.7171V31.2425H15.9793V30.4526H18.2675V31.2425H19.0847V29.7171H18.6216V26.639H15.9793V27.8103C15.9793 28.0663 15.9575 28.3061 15.9139 28.5294C15.8704 28.7582 15.8213 28.938 15.7723 29.0742C15.7178 29.205 15.6579 29.3248 15.5871 29.4392C15.5162 29.5482 15.4726 29.619 15.4454 29.6517C15.4127 29.679 15.3964 29.7062 15.38 29.7171H15.1621ZM16.7965 27.8103V27.3744H17.8044V29.7171H16.1972L16.2626 29.6517C16.3007 29.6081 16.3498 29.5373 16.4097 29.4338C16.4696 29.3303 16.5241 29.2104 16.584 29.0742C16.644 28.938 16.693 28.7528 16.7311 28.5294C16.7747 28.3061 16.7965 28.0663 16.7965 27.8103Z" fill="#46466E"/>
            <path d="M23.656 30.4526V26.639H22.9478L21.0682 29.0633V26.639H20.251V30.4526H20.9592L22.8388 28.0282V30.4526H23.656Z" fill="#46466E"/>
            <path d="M25.9412 26.639H25.124V27.8103C25.124 28.2679 25.2439 28.622 25.4836 28.8727C25.7288 29.1287 26.0611 29.254 26.486 29.254C26.851 29.254 27.1507 29.1832 27.385 29.0361V30.4526H28.2022V26.639H27.385V28.2461L27.2923 28.317C27.2324 28.3605 27.1398 28.4041 27.0145 28.4532C26.8892 28.4967 26.7584 28.5185 26.6222 28.5185C26.4043 28.5185 26.2354 28.4586 26.1156 28.3387C26.0012 28.2134 25.9412 28.0391 25.9412 27.8103V26.639Z" fill="#46466E"/>
            <path d="M32.9924 26.639H32.1752V28.1644H30.5408V26.639H29.7236V30.4526H30.5408V28.8999H32.1752V30.4526H32.9924V26.639Z" fill="#46466E"/>
            <path d="M36.4772 28.8454H35.551L36.0141 27.5924L36.4772 28.8454ZM36.7496 29.5537L37.0765 30.4526H37.9482L36.45 26.639H35.5783L34.0801 30.4526H34.9518L35.2786 29.5537H36.7496Z" fill="#46466E"/>
            <path d="M41.5115 26.639H40.6943V30.4526H41.5115V29.363L42.0019 28.8182L43.1187 30.4526H44.0721L42.5467 28.2189L43.9632 26.639H43.0097L41.5115 28.3006V26.639Z" fill="#46466E"/>
            <path d="M45.7312 28.5456C45.7312 28.1969 45.851 27.8972 46.0907 27.6575C46.325 27.4124 46.6137 27.2925 46.957 27.2925C47.3002 27.2925 47.5889 27.4124 47.8232 27.6575C48.0629 27.8972 48.1828 28.1969 48.1828 28.5456C48.1828 28.8997 48.0629 29.1939 47.8232 29.4336C47.5889 29.6788 47.3002 29.7986 46.957 29.7986C46.6137 29.7986 46.325 29.6788 46.0907 29.4336C45.851 29.1939 45.7312 28.8997 45.7312 28.5456ZM44.8867 28.5456C44.8867 29.0904 45.0883 29.5643 45.486 29.9512C45.8837 30.338 46.374 30.5341 46.957 30.5341C47.5399 30.5341 48.0302 30.338 48.4279 29.9512C48.8256 29.5643 49.0272 29.0904 49.0272 28.5456C49.0272 27.9953 48.8256 27.5268 48.4279 27.14C48.0302 26.7532 47.5399 26.557 46.957 26.557C46.374 26.557 45.8837 26.7532 45.486 27.14C45.0883 27.5268 44.8867 27.9953 44.8867 28.5456Z" fill="#46466E"/>
            <path d="M52.3741 28.3006L51.0665 26.639H50.3311V30.4526H51.1483V27.9192L52.3741 29.4719L53.5999 27.9084V30.4526H54.4171V26.639H53.6925L52.3741 28.3006Z" fill="#46466E"/>
            <path d="M59.1801 26.639H55.9385V30.4526H56.7557V27.3744H58.3629V30.4526H59.1801V26.639Z" fill="#46466E"/>
            <path d="M62.6647 28.8454H61.7385L62.2016 27.5924L62.6647 28.8454ZM62.9371 29.5537L63.264 30.4526H64.1357L62.6375 26.639H61.7658L60.2676 30.4526H61.1393L61.4661 29.5537H62.9371Z" fill="#46466E"/>
            <path d="M68.4915 26.639H67.6743V28.1644H66.0399V26.639H65.2227V30.4526H66.0399V28.8999H67.6743V30.4526H68.4915V26.639Z" fill="#46466E"/>
            <path d="M70.8309 26.639H70.0137V30.4526H70.8309V26.639Z" fill="#46466E"/>
            <path d="M75.1863 26.639H73.4974C73.1161 26.639 72.8055 26.7588 72.5604 26.9985C72.3152 27.2382 72.1899 27.5379 72.1899 27.892C72.1899 28.0446 72.2172 28.1862 72.2607 28.3224C72.3098 28.4586 72.3642 28.5621 72.4296 28.6384C72.4896 28.7147 72.5549 28.7855 72.6367 28.8509C72.7129 28.9162 72.7674 28.9598 72.8001 28.9762C72.8273 28.9871 72.8546 29.0034 72.8709 29.0089L72.0537 30.4526H72.9254L73.6609 29.1178H74.3691V30.4526H75.1863V26.639ZM73.0071 27.892C73.0071 27.7395 73.0561 27.6196 73.1542 27.5215C73.2523 27.4235 73.3776 27.3744 73.5247 27.3744H74.3691V28.3823H73.5247C73.3776 28.3823 73.2523 28.3333 73.1542 28.2407C73.0561 28.1481 73.0071 28.0282 73.0071 27.892Z" fill="#46466E"/>
            <path d="M2.49057 7.62939e-05H0V17.9875H2.49057V11.3144C2.49057 10.1854 2.77137 9.29485 3.33296 8.66767C3.89456 8.04049 4.66371 7.71436 5.61598 7.71436C6.43396 7.71436 7.11765 8.01541 7.66704 8.59241C8.21643 9.18196 8.49722 9.92203 8.49722 10.8126V18.0001H11V10.8126C11 9.15687 10.5483 7.85234 9.64484 6.87394C8.7414 5.89555 7.55716 5.40635 6.11654 5.40635C5.70144 5.40635 5.28635 5.45652 4.88346 5.56941C4.46837 5.68231 4.13873 5.80774 3.87014 5.94572C3.60155 6.0837 3.34517 6.23422 3.11321 6.40983C2.88124 6.58544 2.72253 6.71088 2.64928 6.78614C2.57603 6.8614 2.51498 6.91157 2.49057 6.9492V7.62939e-05Z" fill="#F0145A"/>
            <path d="M16.5675 0H14V17.9725H16.5675V0Z" fill="#323264"/>
            <path d="M31.7113 12.7089L31.8396 11.4252C31.8396 9.70496 31.2748 8.26716 30.1194 7.11178C28.964 5.95641 27.5262 5.39156 25.806 5.39156C24.0858 5.39156 22.5966 6.00776 21.3642 7.24016C20.1318 8.47256 19.5156 9.93604 19.5156 11.6819C19.5156 13.4792 20.1575 15.0197 21.4156 16.3034C22.6737 17.5872 24.1885 18.2291 25.9344 18.2291C26.6019 18.2291 27.2181 18.1264 27.8343 17.9466C28.4505 17.7412 28.964 17.5358 29.3235 17.3304C29.7086 17.0994 30.0937 16.8426 30.4275 16.5602C30.7613 16.2778 30.9924 16.0724 31.0951 15.944C31.1978 15.8156 31.2748 15.7386 31.3261 15.6616L29.6573 13.9927L29.2721 14.4805C29.0154 14.7886 28.5789 15.0967 27.9627 15.4305C27.3208 15.7643 26.6533 15.9183 25.9344 15.9183C24.9331 15.9183 24.0858 15.6102 23.3669 14.9683C22.648 14.3265 22.2115 13.5819 22.0831 12.7089H31.7113ZM25.806 7.57393C26.756 7.57393 27.5262 7.85636 28.1681 8.39553C28.7843 8.96038 29.1694 9.65361 29.3235 10.5266H22.1858C22.4169 9.65361 22.8277 8.96038 23.4696 8.39553C24.0858 7.85636 24.8817 7.57393 25.806 7.57393Z" fill="#323264"/>
            <path d="M43.6853 17.2277C43.6853 18.3574 43.3515 19.2817 42.6583 20.0006C41.9907 20.6939 41.1435 21.0533 40.0908 21.0533C39.6286 21.0533 39.1665 20.9763 38.73 20.8479C38.2935 20.7195 37.9598 20.5655 37.6773 20.3858C37.3949 20.206 37.1382 20.0263 36.8814 19.7952C36.6503 19.5642 36.4963 19.4101 36.4193 19.3331C36.3422 19.2561 36.2909 19.179 36.2395 19.1277L34.5707 20.7966L34.7761 21.0533C34.9044 21.233 35.1355 21.4641 35.4436 21.7209C35.7517 21.9519 36.1112 22.2087 36.522 22.4654C36.9328 22.6965 37.4463 22.9019 38.0881 23.0816C38.73 23.2614 39.3976 23.3641 40.0908 23.3641C41.8367 23.3641 43.2745 22.7735 44.4812 21.5925C45.6623 20.3858 46.2528 18.948 46.2528 17.2021V5.64831H43.6853V6.93206L43.2488 6.54693C42.9664 6.29018 42.5299 6.03343 41.9137 5.77668C41.2975 5.51993 40.63 5.39156 39.9624 5.39156C38.3962 5.39156 37.0611 5.98208 35.9058 7.18881C34.7504 8.39553 34.1855 9.83333 34.1855 11.5536C34.1855 13.2738 34.7504 14.7116 35.9058 15.9183C37.0611 17.125 38.3962 17.7156 39.9624 17.7156C40.3989 17.7156 40.8097 17.6642 41.2462 17.5615C41.657 17.4331 41.9907 17.3048 42.2732 17.1764C42.5556 17.048 42.8123 16.894 43.0434 16.7142C43.2745 16.5345 43.4542 16.4061 43.5056 16.3548L43.6853 16.1751V17.2277ZM36.753 11.5536C36.753 10.4752 37.0868 9.57658 37.78 8.83201C38.4733 8.08743 39.2949 7.70231 40.2192 7.70231C41.1435 7.70231 41.9651 8.08743 42.6583 8.83201C43.3258 9.57658 43.6853 10.4752 43.6853 11.5536C43.6853 12.6319 43.3258 13.5305 42.6583 14.2751C41.9651 15.0197 41.1435 15.4048 40.2192 15.4048C39.2949 15.4048 38.4733 15.0197 37.78 14.2751C37.0868 13.5305 36.753 12.6319 36.753 11.5536Z" fill="#323264"/>
            <path d="M59.6542 17.9723V10.0131C59.6542 8.70363 59.1663 7.59961 58.2164 6.72666C57.2664 5.82803 56.034 5.39156 54.5192 5.39156C53.9286 5.39156 53.3381 5.46858 52.7733 5.62263C52.2084 5.80236 51.7463 5.98208 51.4125 6.18748C51.0787 6.39288 50.7449 6.62396 50.4368 6.90638C50.1287 7.16313 49.949 7.34286 49.8463 7.44556C49.7693 7.54826 49.6922 7.62528 49.6409 7.70231L51.3098 9.37118L51.6436 8.93471C51.849 8.65228 52.2084 8.39553 52.7476 8.11311C53.2868 7.83068 53.8773 7.70231 54.5192 7.70231C55.2637 7.70231 55.8799 7.93338 56.3678 8.36986C56.8556 8.80633 57.0867 9.37119 57.0867 10.0131L52.5935 10.7833C51.4895 10.963 50.5909 11.3995 49.9747 12.0927C49.3328 12.786 48.999 13.6332 48.999 14.6346C48.999 15.5845 49.4098 16.4061 50.2314 17.125C51.0787 17.8696 52.1057 18.2291 53.3638 18.2291C53.8003 18.2291 54.2111 18.1777 54.6219 18.0493C55.0583 17.9466 55.3921 17.8183 55.6745 17.6899C55.957 17.5615 56.2137 17.4075 56.4448 17.2277C56.6759 17.048 56.8299 16.9196 56.9326 16.8683C57.0096 16.7913 57.061 16.7142 57.0867 16.6886V17.9723H59.6542ZM53.7489 15.9183C53.0814 15.9183 52.5422 15.7643 52.1571 15.4562C51.7463 15.1481 51.5665 14.7886 51.5665 14.3778C51.5665 13.9413 51.6949 13.5562 51.9773 13.2738C52.2598 12.9914 52.6449 12.786 53.107 12.7089L57.0867 12.0671V12.3238C57.0867 13.4792 56.8042 14.3521 56.2137 14.994C55.6232 15.6102 54.8016 15.9183 53.7489 15.9183Z" fill="#323264"/>
            <path d="M65.3204 -3.8147e-06H62.7529V17.9725H65.3204V-3.8147e-06Z" fill="#323264"/>
            <path d="M76.9946 7.06043L76.8406 6.88071C76.7379 6.77801 76.5838 6.64963 76.3527 6.46991C76.1217 6.29018 75.8649 6.13613 75.5825 5.95641C75.3001 5.80236 74.9149 5.67398 74.4528 5.54561C73.9906 5.44291 73.5028 5.39156 73.015 5.39156C71.7569 5.39156 70.7299 5.75101 69.9083 6.46991C69.061 7.21448 68.6502 8.03608 68.6502 8.98606C68.6502 9.67929 68.8043 10.2441 69.1124 10.7576C69.4205 11.2455 69.8056 11.6049 70.2934 11.8103C70.7556 12.0414 71.2691 12.2725 71.8083 12.4522C72.3474 12.6319 72.8353 12.786 73.3231 12.9143C73.7852 13.0684 74.1704 13.2481 74.4785 13.4792C74.7866 13.7103 74.9406 14.0184 74.9406 14.3778C74.9406 14.84 74.7609 15.2251 74.4271 15.5075C74.0933 15.7643 73.5798 15.9183 72.8866 15.9183C72.3218 15.9183 71.7569 15.7643 71.2177 15.5075C70.6785 15.2251 70.3448 14.994 70.165 14.8143C70.011 14.6346 69.8826 14.4805 69.8056 14.3778L68.1367 16.0467L68.3164 16.2778C68.4448 16.4318 68.6245 16.6115 68.8813 16.8169C69.1637 17.048 69.4718 17.2534 69.8056 17.4588C70.165 17.6642 70.6272 17.8439 71.1664 17.998C71.7056 18.152 72.2961 18.2291 72.8866 18.2291C74.2474 18.2291 75.3771 17.8439 76.2244 17.0994C77.0716 16.3548 77.5081 15.4305 77.5081 14.3778C77.5081 13.6846 77.3541 13.0941 77.046 12.6319C76.7379 12.1441 76.3527 11.7846 75.8649 11.5536C75.4028 11.2968 74.8893 11.0914 74.3501 10.9117C73.8109 10.732 73.3231 10.5522 72.8353 10.4495C72.3731 10.3212 71.988 10.1158 71.6799 9.88469C71.3718 9.65361 71.2177 9.34551 71.2177 8.98606C71.2177 8.65228 71.3718 8.34418 71.7056 8.08743C72.0137 7.83068 72.4501 7.70231 73.015 7.70231C73.4258 7.70231 73.8366 7.80501 74.2217 7.98473C74.6325 8.16446 74.9149 8.31851 75.0433 8.44688C75.1717 8.57526 75.2744 8.67796 75.3257 8.72931L76.9946 7.06043Z" fill="#323264"/>
            <path d="M92.7554 15.4395L94.5645 13.5376L97.793 18H99.3145L95.418 12.582L98.9341 8.88037H97.3105L92.7554 13.7231V8.88037H91.4287V18H92.7554V15.4395ZM107.942 13.4448C107.942 14.4282 107.608 15.2632 106.959 15.9404C106.31 16.6177 105.521 16.9517 104.612 16.9517C103.703 16.9517 102.914 16.6177 102.265 15.9312C101.615 15.2446 101.291 14.4189 101.291 13.4355C101.291 12.4521 101.615 11.6265 102.265 10.9492C102.914 10.272 103.703 9.92871 104.612 9.92871C105.521 9.92871 106.31 10.272 106.959 10.9492C107.608 11.6265 107.942 12.4614 107.942 13.4448ZM99.9639 13.4448C99.9639 14.7808 100.409 15.9033 101.318 16.8218C102.228 17.731 103.322 18.1948 104.621 18.1948C105.911 18.1948 107.005 17.731 107.905 16.8218C108.814 15.9033 109.26 14.7808 109.26 13.4448C109.26 12.1089 108.814 10.9863 107.905 10.0679C107.005 9.14941 105.911 8.68555 104.621 8.68555C103.322 8.68555 102.228 9.14941 101.318 10.0679C100.409 10.9863 99.9639 12.1089 99.9639 13.4448ZM118.203 18H119.539V8.88037H118.203V12.7769H112.98V8.88037H111.653V18H112.98V14.0107H118.203V18ZM121.441 10.1143H124.669V18H125.996V10.1143H129.225V8.88037H121.441V10.1143ZM133.13 12.7769C132.268 12.9253 131.609 13.2314 131.154 13.6953C130.69 14.1592 130.468 14.7715 130.468 15.5322C130.468 16.228 130.774 16.8403 131.396 17.3784C132.017 17.9165 132.787 18.1855 133.696 18.1855C134.058 18.1855 134.411 18.1392 134.754 18.0371C135.097 17.9443 135.375 17.833 135.589 17.7031C135.793 17.5732 135.988 17.4341 136.173 17.2671C136.359 17.1001 136.47 16.9888 136.526 16.9238C136.582 16.8589 136.619 16.8032 136.646 16.7661V18H137.973V12.2017C137.973 11.209 137.63 10.374 136.943 9.69678C136.257 9.02881 135.403 8.68555 134.364 8.68555C133.956 8.68555 133.548 8.75049 133.158 8.87109C132.769 8.9917 132.453 9.13086 132.212 9.2793C131.971 9.43701 131.739 9.61328 131.516 9.80811C131.293 10.0029 131.154 10.1421 131.089 10.2163C131.024 10.2905 130.978 10.3555 130.941 10.4019L131.794 11.2554L132.082 10.9307C132.268 10.708 132.574 10.4854 133 10.2627C133.427 10.04 133.882 9.92871 134.364 9.92871C135.032 9.92871 135.58 10.1421 136.006 10.5596C136.433 10.9863 136.646 11.5337 136.646 12.2017L133.13 12.7769ZM133.696 16.9517C133.103 16.9517 132.629 16.8218 132.295 16.5527C131.961 16.2837 131.794 15.9404 131.794 15.5322C131.794 14.6787 132.37 14.1406 133.511 13.918L136.646 13.3428V13.918C136.646 14.8179 136.368 15.5508 135.812 16.1074C135.255 16.6733 134.55 16.9517 133.696 16.9517ZM142.333 15.4395L144.143 13.5376L147.371 18H148.893L144.996 12.582L148.512 8.88037H146.889L142.333 13.7231V8.88037H141.007V18H142.333V15.4395ZM157.437 8.88037L151.926 15.7178V8.88037H150.6V18H151.731L157.242 11.1626V18H158.578V8.88037H157.437Z" fill="#323264"/>
            <path fill-rule="evenodd" clip-rule="evenodd" d="M176.998 13.3508H170.888L173.58 5.18491L176.626 5.20286L174.857 10.5882L177.894 10.59L176.998 13.3508Z" fill="url(#paint0_linear_106_2129)"/>
            <path fill-rule="evenodd" clip-rule="evenodd" d="M164.524 23.9512H161.5C161.5 23.9512 167.008 7.04374 168.295 3.0969C168.896 1.25027 170.622 0 172.568 0H177.975C179.605 0 180.966 0.686832 181.812 1.84746C182.657 3.00814 182.897 4.49328 182.404 6.00835C181.911 7.52343 181.444 8.95362 181.017 10.264C180.441 12.0334 178.844 13.2526 176.998 13.3517C176.998 13.3517 176.989 13.3486 179.575 5.40888C179.804 4.70822 179.72 4.0224 179.362 3.53053C179.003 3.03872 178.399 2.74765 177.599 2.74765H172.96C172.049 2.74765 171.242 3.33271 170.96 4.19687L164.524 23.9512Z" fill="#F0145A"/>
            <path fill-rule="evenodd" clip-rule="evenodd" d="M87.4489 0H90.5L82.5511 24H79.5L87.4489 0Z" fill="#F0145A"/>
        </g>
        <defs>
            <linearGradient id="paint0_linear_106_2129" x1="170.887" y1="11.7867" x2="177.676" y2="15.3447" gradientUnits="userSpaceOnUse">
                <stop stop-color="#F0145A"/>
                <stop offset="1" stop-color="#693264"/>
            </linearGradient>
            <clipPath id="clip0_106_2129">
                <rect width="208" height="31" fill="white"/>
            </clipPath>
        </defs>
    </symbol>
    <symbol id="flag-main-about" viewBox="0 0 24 28" width="23px" height="26">
        <path d="M23.1137 4.3054C22.9447 4.1374 22.7457 4.0529 22.5157 4.0529C22.4012 4.0529 22.1597 4.1469 21.7927 4.3324C21.4252 4.5184 21.0352 4.7254 20.6247 4.9564C20.2132 5.1859 19.7262 5.3939 19.1642 5.5799C18.6027 5.7654 18.0827 5.8594 17.6042 5.8594C17.1622 5.8594 16.7722 5.7754 16.4362 5.6069C15.3217 5.0849 14.3522 4.6954 13.5292 4.4384C12.7062 4.1819 11.8212 4.0529 10.8737 4.0529C9.23774 4.0529 7.37424 4.5849 5.28524 5.6469C4.85424 5.8619 4.54524 6.0284 4.34524 6.1504L4.14674 4.6949C4.59524 4.3054 4.88474 3.7379 4.88474 3.0974C4.88474 1.9239 3.93374 0.9729 2.76024 0.9729C1.58674 0.9729 0.635742 1.9239 0.635742 3.0974C0.635742 3.8629 1.04474 4.5284 1.65174 4.9024L4.52174 25.9474C4.60724 26.5739 5.14324 27.0284 5.75874 27.0284C5.81474 27.0284 5.87174 27.0249 5.92924 27.0174C6.61324 26.9234 7.09224 26.2939 6.99874 25.6099L5.84524 17.1514C7.93824 16.1129 9.74874 15.5894 11.2717 15.5894C11.9182 15.5894 12.5487 15.6859 13.1632 15.8809C13.7782 16.0764 14.2897 16.2884 14.6967 16.5179C15.1037 16.7479 15.5842 16.9609 16.1367 17.1549C16.6902 17.3499 17.2367 17.4474 17.7762 17.4474C19.1392 17.4474 20.7717 16.9339 22.6742 15.9074C22.9132 15.7834 23.0882 15.6614 23.1987 15.5419C23.3092 15.4224 23.3647 15.2524 23.3647 15.0314V4.9029C23.3647 4.6734 23.2812 4.4739 23.1137 4.3054Z"
              fill="#F0145A"/>
    </symbol>
    <symbol id="star-main-about" viewBox="0 0 26 26" width="23px" height="26">
        <path d="M13.0971 0.552979C6.25258 0.552979 0.684082 6.12148 0.684082 12.966C0.684082 19.811 6.25258 25.38 13.0971 25.38C19.9416 25.38 25.5101 19.811 25.5101 12.966C25.5106 6.12148 19.9421 0.552979 13.0971 0.552979ZM19.9556 12.0585V12.059L16.3621 14.659L17.7461 18.889C17.7681 18.955 17.7796 19.0255 17.7796 19.0975C17.7796 19.467 17.4806 19.767 17.1111 19.767C16.9641 19.767 16.8291 19.72 16.7191 19.6405L13.0976 17.021L9.47608 19.6405C9.36608 19.72 9.23108 19.767 9.08458 19.767C8.71458 19.767 8.41508 19.4675 8.41508 19.0975C8.41508 19.025 8.42708 18.955 8.44908 18.889L9.83358 14.659L6.24008 12.059V12.0585C6.07208 11.9375 5.96308 11.74 5.96308 11.517C5.96308 11.1475 6.26208 10.8485 6.63208 10.8485H11.0806L12.4581 6.63798C12.5421 6.36448 12.7966 6.16548 13.0981 6.16548C13.3991 6.16548 13.6541 6.36448 13.7376 6.63798L15.1151 10.8485H19.5636C19.9331 10.8485 20.2326 11.1475 20.2326 11.517C20.2321 11.74 20.1231 11.9375 19.9556 12.0585Z" fill="#F0145A"/>
    </symbol>
    <symbol id="bag-main-about" viewBox="0 0 26 22" width="23px" height="26">
        <path d="M14.2321 13.332V12.774C14.2321 12.0935 13.6806 11.542 13.0006 11.542C12.3201 11.542 11.7686 12.0935 11.7686 12.774V13.332C11.7686 14.0125 12.3201 14.564 13.0006 14.564C13.6801 14.564 14.2321 14.0125 14.2321 13.332Z" fill="#F0145A"/>
        <path d="M15.0769 14.0136C14.8039 14.9071 13.9814 15.5631 13.0004 15.5631C12.0189 15.5631 11.1964 14.9071 10.9234 14.0136H2.43886C1.90336 14.0136 1.39736 13.8891 0.943359 13.6731V19.3066C0.943359 20.4066 1.84336 21.3066 2.94336 21.3066H23.0564C24.1564 21.3066 25.0564 20.4066 25.0564 19.3066V13.6736C24.6019 13.8896 24.0964 14.0141 23.5609 14.0141H15.0769V14.0136Z" fill="#F0145A"/>
        <path d="M23.4775 3.8976H18.677C18.387 2.0846 16.8165 0.693604 14.923 0.693604H11.0765C9.18297 0.693604 7.61297 2.0846 7.32247 3.8976H2.52247C1.37647 3.8976 0.438965 4.7976 0.438965 5.8976V10.5141C0.438965 11.6186 1.33447 12.5141 2.43897 12.5141H10.829C10.8575 11.9386 11.1045 11.4216 11.495 11.0476C11.507 11.0361 11.521 11.0271 11.5335 11.0161C11.62 10.9366 11.71 10.8616 11.8085 10.7966C11.8435 10.7731 11.8835 10.7571 11.92 10.7361C12.001 10.6896 12.081 10.6411 12.1685 10.6051C12.237 10.5766 12.311 10.5601 12.383 10.5386C12.445 10.5201 12.504 10.4956 12.5685 10.4826C12.708 10.4541 12.8525 10.4391 13 10.4391C13.148 10.4391 13.292 10.4546 13.4315 10.4826C13.4955 10.4956 13.5545 10.5201 13.6165 10.5386C13.6885 10.5601 13.7625 10.5766 13.831 10.6056C13.918 10.6416 13.9975 10.6896 14.0785 10.7361C14.1155 10.7576 14.1555 10.7736 14.191 10.7971C14.2895 10.8616 14.379 10.9366 14.4655 11.0161C14.478 11.0276 14.4925 11.0366 14.5045 11.0486C14.8955 11.4226 15.142 11.9396 15.1705 12.5151H23.5605C24.665 12.5151 25.5605 11.6196 25.5605 10.5151V5.8986C25.561 4.7976 24.6235 3.8976 23.4775 3.8976ZM9.24797 3.8976C9.50297 3.1271 10.2215 2.5656 11.0765 2.5656H14.923C15.778 2.5656 16.4965 3.1271 16.7515 3.8976H9.24797Z" fill="#F0145A"/>
    </symbol>
    <symbol id="Logo-otherpage-ondark" viewBox="0 0 413 63">
        <g clip-path="url(#clip0_103_9136)">
            <path d="M10.3513 58.0913C10.3513 56.9799 9.9699 56.0429 9.21807 55.2692C8.46624 54.4956 7.55097 54.1143 6.48316 54.1143C5.51341 54.1143 4.67441 54.4193 3.96617 55.0404C3.26882 55.6506 2.83298 56.3915 2.66953 57.2741H1.63441V54.2777H0V61.9049H1.63441V58.7996H2.66953C2.83298 59.7257 3.26882 60.5102 3.96617 61.1313C4.66351 61.7524 5.50251 62.0684 6.48316 62.0684C7.55097 62.0684 8.46624 61.687 9.21807 60.9134C9.9699 60.1507 10.3513 59.2027 10.3513 58.0913ZM8.71685 58.0913C8.71685 58.8105 8.49893 59.4097 8.06309 59.8783C7.61635 60.3577 7.09334 60.5974 6.48316 60.5974C5.87298 60.5974 5.34997 60.3577 4.91412 59.8783C4.46738 59.4097 4.24946 58.8105 4.24946 58.0913C4.24946 57.3722 4.46738 56.7729 4.91412 56.2935C5.34997 55.8249 5.87298 55.5852 6.48316 55.5852C7.09334 55.5852 7.61635 55.8249 8.06309 56.2935C8.49893 56.7729 8.71685 57.3722 8.71685 58.0913Z" fill="white"/>
            <path d="M12.9602 54.2783V61.9056H14.5946V59.3995H16.1745C16.9591 59.3995 17.6128 59.1489 18.1249 58.6585C18.6371 58.1682 18.8986 57.558 18.8986 56.8389C18.8986 56.1089 18.6371 55.5096 18.1249 55.0084C17.6019 54.518 16.9591 54.2783 16.1745 54.2783H12.9602ZM16.1201 55.7493C16.4469 55.7493 16.7193 55.8582 16.9373 56.0653C17.1552 56.2723 17.2641 56.5338 17.2641 56.8389C17.2641 57.144 17.1552 57.4055 16.9373 57.6125C16.7193 57.8195 16.4469 57.9285 16.1201 57.9285H14.5946V55.7493H16.1201Z" fill="white"/>
            <path d="M28.2617 61.9056V54.2783H26.8452L23.0861 59.1271V54.2783H21.4517V61.9056H22.8681L26.6273 57.0568V61.9056H28.2617Z" fill="white"/>
            <path d="M30.3245 60.4346V63.4855H31.9589V61.9056H36.5352V63.4855H38.1696V60.4346H37.2435V54.2783H31.9589V56.621C31.9589 57.1331 31.9153 57.6125 31.8281 58.0593C31.741 58.5169 31.6429 58.8765 31.5448 59.1489C31.4359 59.4104 31.316 59.6501 31.1744 59.8789C31.0327 60.0968 30.9455 60.2385 30.8911 60.3038C30.8257 60.3583 30.793 60.4128 30.7603 60.4346H30.3245ZM33.5933 56.621V55.7493H35.6091V60.4346H32.3947L32.5255 60.3038C32.6017 60.2167 32.6998 60.075 32.8197 59.868C32.9395 59.661 33.0485 59.4213 33.1683 59.1489C33.2882 58.8765 33.3863 58.506 33.4625 58.0593C33.5497 57.6125 33.5933 57.1331 33.5933 56.621Z" fill="white"/>
            <path d="M47.3115 61.9056V54.2783H45.895L42.1359 59.1271V54.2783H40.5015V61.9056H41.918L45.6771 57.0568V61.9056H47.3115Z" fill="white"/>
            <path d="M51.8817 54.2783H50.2473V56.621C50.2473 57.5362 50.487 58.2445 50.9665 58.7457C51.4568 59.2578 52.1214 59.5084 52.9713 59.5084C53.7014 59.5084 54.3007 59.3668 54.7692 59.0726V61.9056H56.4036V54.2783H54.7692V57.4927L54.5839 57.6343C54.4641 57.7215 54.2789 57.8086 54.0282 57.9067C53.7776 57.9939 53.5161 58.0375 53.2437 58.0375C52.8079 58.0375 52.4701 57.9176 52.2304 57.6779C52.0016 57.4273 51.8817 57.0786 51.8817 56.621V54.2783Z" fill="white"/>
            <path d="M65.9856 54.2783H64.3512V57.3292H61.0824V54.2783H59.448V61.9056H61.0824V58.8002H64.3512V61.9056H65.9856V54.2783Z" fill="white"/>
            <path d="M72.9549 58.6912H71.1026L72.0288 56.1851L72.9549 58.6912ZM73.4997 60.1077L74.1535 61.9056H75.8969L72.9004 54.2783H71.1571L68.1606 61.9056H69.904L70.5578 60.1077H73.4997Z" fill="white"/>
            <path d="M83.0223 54.2783H81.3879V61.9056H83.0223V59.7263L84.003 58.6367L86.2367 61.9056H88.1435L85.0926 57.4382L87.9256 54.2783H86.0188L83.0223 57.6016V54.2783Z" fill="white"/>
            <path d="M91.4614 58.0913C91.4614 57.394 91.7011 56.7947 92.1805 56.3153C92.649 55.8249 93.2265 55.5852 93.913 55.5852C94.5994 55.5852 95.1769 55.8249 95.6454 56.3153C96.1249 56.7947 96.3646 57.394 96.3646 58.0913C96.3646 58.7996 96.1249 59.388 95.6454 59.8674C95.1769 60.3577 94.5994 60.5974 93.913 60.5974C93.2265 60.5974 92.649 60.3577 92.1805 59.8674C91.7011 59.388 91.4614 58.7996 91.4614 58.0913ZM89.7725 58.0913C89.7725 59.1809 90.1756 60.1289 90.971 60.9025C91.7664 61.6761 92.7471 62.0684 93.913 62.0684C95.0788 62.0684 96.0595 61.6761 96.8549 60.9025C97.6503 60.1289 98.0535 59.1809 98.0535 58.0913C98.0535 56.9908 97.6503 56.0538 96.8549 55.2801C96.0595 54.5065 95.0788 54.1143 93.913 54.1143C92.7471 54.1143 91.7664 54.5065 90.971 55.2801C90.1756 56.0538 89.7725 56.9908 89.7725 58.0913Z" fill="white"/>
            <path d="M104.748 57.6016L102.133 54.2783H100.662V61.9056H102.297V56.8389L104.748 59.9443L107.2 56.8171V61.9056H108.834V54.2783H107.385L104.748 57.6016Z" fill="white"/>
            <path d="M118.359 54.2783H111.876V61.9056H113.511V55.7493H116.725V61.9056H118.359V54.2783Z" fill="white"/>
            <path d="M125.33 58.6912H123.478L124.404 56.1851L125.33 58.6912ZM125.875 60.1077L126.528 61.9056H128.272L125.275 54.2783H123.532L120.536 61.9056H122.279L122.933 60.1077H125.875Z" fill="white"/>
            <path d="M136.983 54.2783H135.349V57.3292H132.08V54.2783H130.446V61.9056H132.08V58.8002H135.349V61.9056H136.983V54.2783Z" fill="white"/>
            <path d="M141.662 54.2783H140.028V61.9056H141.662V54.2783Z" fill="white"/>
            <path d="M150.373 54.2783H146.995C146.232 54.2783 145.611 54.518 145.121 54.9975C144.63 55.4769 144.38 56.0762 144.38 56.7844C144.38 57.0895 144.434 57.3728 144.521 57.6452C144.62 57.9176 144.728 58.1246 144.859 58.2772C144.979 58.4297 145.11 58.5714 145.273 58.7021C145.426 58.8329 145.535 58.92 145.6 58.9527C145.655 58.9745 145.709 59.0072 145.742 59.0181L144.107 61.9056H145.851L147.322 59.236H148.738V61.9056H150.373V54.2783ZM146.014 56.7844C146.014 56.4793 146.112 56.2396 146.308 56.0435C146.505 55.8474 146.755 55.7493 147.049 55.7493H148.738V57.7651H147.049C146.755 57.7651 146.505 57.667 146.308 57.4818C146.112 57.2965 146.014 57.0568 146.014 56.7844Z" fill="white"/>
            <path d="M4.98113 1H0V36.9749H4.98113V23.6286C4.98113 21.3707 5.54273 19.5895 6.66593 18.3352C7.78912 17.0808 9.32741 16.4286 11.232 16.4286C12.8679 16.4286 14.2353 17.0307 15.3341 18.1847C16.4329 19.3638 16.9944 20.8439 16.9944 22.6251V37H22V22.6251C22 19.3136 21.0966 16.7045 19.2897 14.7477C17.4828 12.7909 15.1143 11.8125 12.2331 11.8125C11.4029 11.8125 10.5727 11.9129 9.76693 12.1387C8.93674 12.3645 8.27747 12.6153 7.74029 12.8913C7.20311 13.1672 6.69034 13.4683 6.22642 13.8195C5.76249 14.1707 5.44506 14.4216 5.29856 14.5721C5.15205 14.7226 5.02997 14.823 4.98113 14.8983V1Z" fill="#F0145A"/>
            <path d="M33.135 1H28V36.945H33.135V1Z" fill="white"/>
            <path d="M63.4223 26.418L63.679 23.8505C63.679 20.41 62.5493 17.5344 60.2386 15.2237C57.9278 12.9129 55.0522 11.7832 51.6118 11.7832C48.1713 11.7832 45.193 13.0156 42.7282 15.4804C40.2634 17.9452 39.031 20.8722 39.031 24.364C39.031 27.9585 40.3148 31.0395 42.8309 33.607C45.3471 36.1745 48.3767 37.4582 51.8685 37.4582C53.2036 37.4582 54.436 37.2528 55.6684 36.8934C56.9008 36.4826 57.9278 36.0718 58.6467 35.661C59.417 35.1988 60.1872 34.6853 60.8548 34.1205C61.5223 33.5556 61.9845 33.1448 62.1899 32.8881C62.3953 32.6313 62.5493 32.4773 62.652 32.3232L59.3143 28.9855L58.544 29.9611C58.0305 30.5773 57.1576 31.1935 55.9252 31.8611C54.6414 32.5286 53.3063 32.8367 51.8685 32.8367C49.8659 32.8367 48.1713 32.2205 46.7335 30.9368C45.2957 29.653 44.4228 28.1639 44.166 26.418H63.4223ZM51.6118 16.148C53.5117 16.148 55.0522 16.7128 56.336 17.7912C57.5684 18.9209 58.3386 20.3073 58.6467 22.0532H44.3714C44.8336 20.3073 45.6552 18.9209 46.9389 17.7912C48.1713 16.7128 49.7632 16.148 51.6118 16.148Z" fill="white"/>
            <path d="M87.3711 35.4556C87.3711 37.715 86.7035 39.5636 85.3171 41.0014C83.982 42.3878 82.2874 43.1067 80.1821 43.1067C79.2578 43.1067 78.3335 42.9527 77.4605 42.6959C76.5876 42.4392 75.92 42.1311 75.3552 41.7716C74.7903 41.4122 74.2768 41.0527 73.7633 40.5906C73.3012 40.1284 72.9931 39.8203 72.839 39.6663C72.685 39.5122 72.5823 39.3582 72.4796 39.2555L69.1418 42.5932L69.5526 43.1067C69.8094 43.4662 70.2715 43.9283 70.8877 44.4418C71.5039 44.904 72.2228 45.4175 73.0444 45.931C73.866 46.3931 74.893 46.8039 76.1768 47.1634C77.4605 47.5228 78.7956 47.7282 80.1821 47.7282C83.6739 47.7282 86.5495 46.5472 88.9629 44.1851C91.325 41.7716 92.5061 38.896 92.5061 35.4042V12.2967H87.3711V14.8642L86.4981 14.094C85.9333 13.5805 85.0603 13.067 83.8279 12.5535C82.5955 12.04 81.2604 11.7832 79.9253 11.7832C76.793 11.7832 74.1228 12.9643 71.812 15.3777C69.5013 17.7912 68.3716 20.6668 68.3716 24.1072C68.3716 27.5477 69.5013 30.4233 71.812 32.8367C74.1228 35.2502 76.793 36.4312 79.9253 36.4312C80.7983 36.4312 81.6199 36.3285 82.4928 36.1231C83.3144 35.8664 83.982 35.6096 84.5468 35.3529C85.1117 35.0961 85.6252 34.788 86.0873 34.4286C86.5495 34.0691 86.9089 33.8124 87.0116 33.7097L87.3711 33.3502V35.4556ZM73.5066 24.1072C73.5066 21.9505 74.1741 20.1533 75.5606 18.6641C76.947 17.175 78.5902 16.4047 80.4388 16.4047C82.2874 16.4047 83.9306 17.175 85.3171 18.6641C86.6522 20.1533 87.3711 21.9505 87.3711 24.1072C87.3711 26.2639 86.6522 28.0612 85.3171 29.5503C83.9306 31.0395 82.2874 31.8097 80.4388 31.8097C78.5902 31.8097 76.947 31.0395 75.5606 29.5503C74.1741 28.0612 73.5066 26.2639 73.5066 24.1072Z" fill="white"/>
            <path d="M119.309 36.9447V21.0262C119.309 18.4074 118.333 16.1993 116.433 14.4534C114.533 12.6562 112.068 11.7832 109.039 11.7832C107.858 11.7832 106.677 11.9373 105.547 12.2454C104.417 12.6048 103.493 12.9643 102.825 13.3751C102.158 13.7859 101.49 14.248 100.874 14.8129C100.258 15.3264 99.8985 15.6858 99.6931 15.8912C99.539 16.0966 99.385 16.2507 99.2823 16.4047L102.62 19.7425L103.288 18.8695C103.698 18.3047 104.417 17.7912 105.496 17.2263C106.574 16.6615 107.755 16.4047 109.039 16.4047C110.528 16.4047 111.76 16.8669 112.736 17.7398C113.712 18.6128 114.174 19.7425 114.174 21.0262L105.188 22.5667C102.979 22.9262 101.182 23.7991 99.9498 25.1856C98.6661 26.572 97.9985 28.2666 97.9985 30.2692C97.9985 32.1692 98.8201 33.8124 100.463 35.2502C102.158 36.7393 104.212 37.4582 106.728 37.4582C107.601 37.4582 108.423 37.3555 109.244 37.0988C110.117 36.8934 110.785 36.6366 111.35 36.3799C111.914 36.1231 112.428 35.815 112.89 35.4556C113.352 35.0961 113.66 34.8394 113.866 34.7367C114.02 34.5826 114.122 34.4286 114.174 34.3772V36.9447H119.309ZM107.498 32.8367C106.163 32.8367 105.085 32.5286 104.315 31.9124C103.493 31.2962 103.134 30.5773 103.134 29.7557C103.134 28.8828 103.39 28.1125 103.955 27.5477C104.52 26.9828 105.29 26.572 106.215 26.418L114.174 25.1342V25.6477C114.174 27.9585 113.609 29.7044 112.428 30.9881C111.247 32.2205 109.604 32.8367 107.498 32.8367Z" fill="white"/>
            <path d="M130.64 1H125.505V36.945H130.64V1Z" fill="white"/>
            <path d="M153.989 15.121L153.681 14.7615C153.475 14.5561 153.167 14.2994 152.705 13.9399C152.243 13.5805 151.73 13.2724 151.165 12.9129C150.6 12.6048 149.83 12.3481 148.905 12.0913C147.981 11.8859 147.005 11.7832 146.03 11.7832C143.514 11.7832 141.46 12.5021 139.816 13.9399C138.122 15.4291 137.3 17.0723 137.3 18.9722C137.3 20.3587 137.608 21.4884 138.224 22.5154C138.841 23.491 139.611 24.2099 140.587 24.6207C141.511 25.0829 142.538 25.545 143.616 25.9045C144.695 26.2639 145.67 26.572 146.646 26.8288C147.57 27.1369 148.34 27.4963 148.957 27.9585C149.573 28.4206 149.881 29.0368 149.881 29.7557C149.881 30.68 149.522 31.4503 148.854 32.0151C148.186 32.5286 147.159 32.8367 145.773 32.8367C144.643 32.8367 143.514 32.5286 142.435 32.0151C141.357 31.4503 140.689 30.9881 140.33 30.6287C140.022 30.2692 139.765 29.9611 139.611 29.7557L136.273 33.0935L136.633 33.5556C136.889 33.8637 137.249 34.2232 137.762 34.634C138.327 35.0961 138.943 35.5069 139.611 35.9177C140.33 36.3285 141.254 36.688 142.333 36.9961C143.411 37.3042 144.592 37.4582 145.773 37.4582C148.495 37.4582 150.754 36.688 152.448 35.1988C154.143 33.7097 155.016 31.8611 155.016 29.7557C155.016 28.3693 154.708 27.1882 154.092 26.2639C153.475 25.2883 152.705 24.5694 151.73 24.1072C150.805 23.5937 149.778 23.1829 148.7 22.8235C147.622 22.464 146.646 22.1046 145.67 21.8992C144.746 21.6424 143.976 21.2316 143.36 20.7695C142.743 20.3073 142.435 19.6911 142.435 18.9722C142.435 18.3047 142.743 17.6885 143.411 17.175C144.027 16.6615 144.9 16.4047 146.03 16.4047C146.851 16.4047 147.673 16.6101 148.443 16.9696C149.265 17.329 149.83 17.6371 150.086 17.8939C150.343 18.1506 150.549 18.356 150.651 18.4587L153.989 15.121Z" fill="white"/>
            <path d="M196.957 37H199.629V18.7607H183.857V37H186.511V21.2656H196.957V37ZM220.336 27.8896C220.336 29.8564 219.668 31.5264 218.369 32.8809C217.07 34.2354 215.493 34.9033 213.675 34.9033C211.856 34.9033 210.279 34.2354 208.98 32.8623C207.682 31.4893 207.032 29.8379 207.032 27.8711C207.032 25.9043 207.682 24.2529 208.98 22.8984C210.279 21.5439 211.856 20.8574 213.675 20.8574C215.493 20.8574 217.07 21.5439 218.369 22.8984C219.668 24.2529 220.336 25.9229 220.336 27.8896ZM204.379 27.8896C204.379 30.5615 205.27 32.8066 207.088 34.6436C208.906 36.4619 211.096 37.3896 213.693 37.3896C216.272 37.3896 218.462 36.4619 220.262 34.6436C222.08 32.8066 222.971 30.5615 222.971 27.8896C222.971 25.2178 222.08 22.9727 220.262 21.1357C218.462 19.2988 216.272 18.3711 213.693 18.3711C211.096 18.3711 208.906 19.2988 207.088 21.1357C205.27 22.9727 204.379 25.2178 204.379 27.8896ZM226.422 27.8711C226.422 30.5059 227.312 32.751 229.112 34.6064C230.894 36.4619 233.046 37.3711 235.532 37.3711C236.423 37.3711 237.295 37.2412 238.148 36.9629C239.002 36.6846 239.707 36.3877 240.245 36.0537C240.802 35.7197 241.321 35.3486 241.804 34.9219C242.305 34.4951 242.639 34.1982 242.787 34.0127C242.936 33.8271 243.047 33.6973 243.121 33.5859L241.229 31.8789L240.616 32.6211C240.189 33.1406 239.503 33.6416 238.557 34.1426C237.592 34.6621 236.59 34.9033 235.532 34.9033C233.788 34.9033 232.267 34.2354 230.986 32.8809C229.706 31.5264 229.075 29.8564 229.075 27.8896C229.075 25.9229 229.706 24.2529 230.986 22.8984C232.267 21.5439 233.788 20.8574 235.532 20.8574C236.219 20.8574 236.887 20.9688 237.518 21.1729C238.148 21.3955 238.649 21.6367 239.058 21.8965C239.447 22.1562 239.818 22.4717 240.152 22.8242C240.486 23.1953 240.709 23.4365 240.802 23.5664C240.913 23.7148 240.987 23.8076 241.024 23.8818L242.936 21.9893L242.138 21.1172C241.618 20.5234 240.728 19.9111 239.503 19.2988C238.278 18.6865 236.942 18.3711 235.514 18.3711C233.046 18.3711 230.912 19.2988 229.112 21.1543C227.312 23.0098 226.422 25.2363 226.422 27.8711ZM249.207 18.7607V24.0859C249.207 27.0732 249.04 29.374 248.743 30.9883C248.446 32.584 248.075 33.623 247.63 34.0684C247.185 34.5137 246.572 34.7363 245.793 34.7363C245.273 34.7363 244.772 34.6064 244.271 34.3652V37.0186L244.531 37.0928C244.68 37.167 244.902 37.2227 245.218 37.2969C245.533 37.3525 245.849 37.3896 246.164 37.3896C247.073 37.3896 247.853 37.2041 248.502 36.833C249.133 36.4619 249.727 35.8125 250.265 34.8848C250.784 33.957 251.192 32.584 251.452 30.8027C251.712 29.0215 251.86 26.7764 251.86 24.1045V21.2471H259.839V37.0186H262.511V18.7793L249.207 18.7607ZM272.567 39.6533C271.881 41.5645 270.73 42.5107 269.116 42.5107C268.485 42.5107 267.854 42.3809 267.224 42.1211V44.6074L267.483 44.6816C267.669 44.7559 267.966 44.8301 268.337 44.8857C268.708 44.96 269.098 44.9785 269.506 44.9785C270.823 44.9785 271.918 44.5889 272.79 43.7725C273.644 42.9561 274.46 41.583 275.221 39.6533L283.589 18.7607H280.731L274.85 33.5859L268.949 18.7607H266.092L273.514 37L272.567 39.6533ZM299.36 18.7607H287.207V37H289.86V21.2285H299.36V18.7607ZM316.468 18.7607L305.446 32.4355V18.7607H302.793V37H305.057L316.078 23.3252V37H318.75V18.7607H316.468Z" fill="white"/>
            <path fill-rule="evenodd" clip-rule="evenodd" d="M353.258 27.1454H341.329L346.585 11.1538L352.532 11.189L349.079 21.7352L355.008 21.7387L353.258 27.1454Z" fill="url(#paint0_linear_103_9136)"/>
            <path fill-rule="evenodd" clip-rule="evenodd" d="M328.904 47.9044H323C323 47.9044 333.754 14.794 336.266 7.06476C337.441 3.44844 340.809 1 344.609 1H355.165C358.348 1 361.005 2.34505 362.657 4.61793C364.307 6.89094 364.776 9.79933 363.813 12.7664C362.849 15.7334 361.939 18.5342 361.105 21.1004C359.98 24.5654 356.863 26.953 353.259 27.1471C353.259 27.1471 353.24 27.1411 358.29 11.5924C358.736 10.2203 358.573 8.8772 357.873 7.91395C357.173 6.95083 355.993 6.3808 354.432 6.3808H345.374C343.596 6.3808 342.02 7.52656 341.47 9.21887L328.904 47.9044Z" fill="#F0145A"/>
            <path fill-rule="evenodd" clip-rule="evenodd" d="M175.227 1H181.071L165.845 47.8434H160L175.227 1Z" fill="#F0145A"/>
        </g>
        <defs>
            <linearGradient id="paint0_linear_103_9136" x1="341.328" y1="24.0824" x2="354.6" y2="31.0168" gradientUnits="userSpaceOnUse">
                <stop stop-color="#F0145A"/>
                <stop offset="1" stop-color="#693264"/>
            </linearGradient>
            <clipPath id="clip0_103_9136">
                <rect width="413" height="63" fill="white"/>
            </clipPath>
        </defs>
    </symbol>
</svg>

